<svg width="24" height="24" viewBox="0 0 24 24" fill="none" xmlns="http://www.w3.org/2000/svg">
<path fill-rule="evenodd" clip-rule="evenodd" d="M15.3791 20.6067C18.0164 19.9827 20.0731 17.9499 20.6747 15.3627C21.2123 13.051 21.0816 10.6387 20.2972 8.39551L20.1806 8.06226C19.3175 5.59406 17.1613 3.77209 14.5387 3.29489L13.8206 3.16422C12.6172 2.94526 11.3828 2.94526 10.1795 3.16422L9.46129 3.2949C6.83871 3.77209 4.68252 5.59405 3.8194 8.06224L3.70286 8.3955C2.91843 10.6387 2.78769 13.051 3.32527 15.3627C3.92692 17.9499 5.98356 19.9827 8.62087 20.6067C10.8373 21.1311 13.1627 21.1311 15.3791 20.6067ZM9.62913 7.20008C9.76453 6.88483 9.61295 6.52193 9.29056 6.38953C8.96817 6.25713 8.59705 6.40535 8.46165 6.7206L8.24934 7.2149C7.85679 8.12883 7.75812 9.13798 7.96646 10.1081C8.29708 11.6476 9.55047 12.8367 11.1342 13.1132L11.2512 13.1336C11.7465 13.2201 12.2535 13.2201 12.7488 13.1336L12.8659 13.1132C14.4495 12.8367 15.7029 11.6476 16.0336 10.1081C16.2419 9.13798 16.1432 8.12884 15.7507 7.21491L15.5384 6.7206C15.403 6.40535 15.0319 6.25713 14.7095 6.38953C14.3871 6.52193 14.2355 6.88483 14.3709 7.20007L14.5832 7.69438C14.8762 8.37646 14.9498 9.1296 14.7943 9.85361C14.5698 10.899 13.7187 11.7065 12.6433 11.8943L12.5262 11.9147C12.1782 11.9755 11.8219 11.9755 11.4738 11.9147L11.3568 11.8943C10.2813 11.7065 9.43021 10.899 9.2057 9.85361C9.05021 9.1296 9.12385 8.37646 9.41681 7.69438L9.62913 7.20008Z" fill="#9E09E4"/>
</svg>
