<svg width="18" height="18" viewBox="0 0 18 18" fill="none" xmlns="http://www.w3.org/2000/svg">
<path d="M17.121 2.271C16.826 2.015 15.215 0.54 14.914 0.28C14.615 0.021 14.158 0 13.812 0H4.18801C3.84301 0 3.38601 0.021 3.08601 0.28C2.78501 0.54 1.17401 2.016 0.879007 2.271C0.582007 2.527 0.336007 2.914 0.415007 3.463C0.494007 4.014 2.30501 17.124 2.35201 17.436C2.37681 17.591 2.45528 17.7324 2.57372 17.8355C2.69215 17.9386 2.84303 17.9968 3.00001 18H15C15.1571 17.9968 15.3081 17.9384 15.4266 17.8351C15.545 17.7319 15.6234 17.5902 15.648 17.435C15.695 17.124 17.506 4.013 17.586 3.462C17.664 2.914 17.418 2.527 17.121 2.271ZM9.00001 10.973C5.75201 10.973 5.05701 6.377 4.91301 5.43H6.75001C7.02601 6.811 7.65401 9.174 9.00001 9.174C10.346 9.174 10.975 6.811 11.25 5.43H13.088C12.943 6.377 12.248 10.973 9.00001 10.973ZM2.17001 3.006L4.00001 1H14L15.83 3.006H2.17001Z" fill="#F5000F"/>
</svg>
