<svg width="18" height="18" viewBox="0 0 18 18" fill="none" xmlns="http://www.w3.org/2000/svg">
<path d="M17.121 2.271C16.826 2.015 15.215 0.54 14.914 0.28C14.615 0.021 14.158 0 13.812 0H4.188C3.843 0 3.386 0.021 3.086 0.28C2.785 0.54 1.174 2.016 0.879 2.271C0.582 2.527 0.336 2.914 0.415 3.463C0.494 4.014 2.305 17.124 2.352 17.436C2.37681 17.591 2.45528 17.7324 2.57371 17.8355C2.69215 17.9386 2.84302 17.9968 3 18H15C15.1571 17.9968 15.3081 17.9384 15.4266 17.8351C15.545 17.7319 15.6234 17.5902 15.648 17.435C15.695 17.124 17.506 4.013 17.586 3.462C17.664 2.914 17.418 2.527 17.121 2.271ZM9 10.973C5.752 10.973 5.057 6.377 4.913 5.43H6.75C7.026 6.811 7.654 9.174 9 9.174C10.346 9.174 10.975 6.811 11.25 5.43H13.088C12.943 6.377 12.248 10.973 9 10.973ZM2.17 3.006L4 1H14L15.83 3.006H2.17Z" fill="#009E52"/>
</svg>
