<svg width="48" height="54" viewBox="0 0 48 54" fill="none" xmlns="http://www.w3.org/2000/svg">
<path d="M37.9501 22.5359C31.1101 7.8149 27.5521 2.2229 16.3771 2.4569C12.3961 2.5379 13.3501 -0.429101 10.3141 0.695899C7.28408 1.8209 9.88508 3.4679 6.78308 6.0149C-1.92292 13.1639 -1.12192 19.7759 2.91608 35.5349C4.61708 42.1739 -1.18492 42.4979 1.11008 48.9299C2.78708 53.6219 15.1471 55.5869 28.1851 50.7509C41.2261 45.9119 49.4431 36.3089 47.7661 31.6169C45.4711 25.1819 40.8331 28.7339 37.9501 22.5359ZM26.7721 46.7849C15.1261 51.1049 5.55608 48.5669 5.15108 47.4359C4.45508 45.4859 8.91008 38.9879 22.2241 34.0469C35.5381 29.1059 42.9691 30.9389 43.7461 33.1139C44.2051 34.4009 38.4211 42.4619 26.7721 46.7849ZM23.0281 36.3029C16.9411 38.5619 12.7111 41.1449 9.96908 43.4699C11.8981 45.2219 15.5101 45.6479 19.1071 44.3129C23.6881 42.6179 26.5051 38.7149 25.3921 35.6009L25.3441 35.4929C24.5911 35.7389 23.8201 36.0059 23.0281 36.3029Z" fill="#F4F4F4"/>
</svg>
