<svg width="14" height="16" viewBox="0 0 14 16" fill="none" xmlns="http://www.w3.org/2000/svg">
<path fill-rule="evenodd" clip-rule="evenodd" d="M7.4536 0.47876C7.97339 0.47876 8.47865 0.69219 8.8409 1.06315C9.20243 1.43629 9.40206 1.94809 9.38682 2.46715C9.38827 2.58403 9.42674 2.71905 9.49644 2.83738C9.61186 3.03339 9.79408 3.17132 10.0104 3.22795C10.2267 3.28167 10.4532 3.25263 10.6456 3.13866C11.5748 2.60798 12.7574 2.92595 13.2881 3.84791L13.7404 4.63122C13.752 4.65227 13.7621 4.6726 13.7709 4.69365C14.2514 5.60182 13.9306 6.74519 13.0376 7.26715C12.9077 7.34193 12.8024 7.44647 12.7298 7.57278C12.6173 7.76806 12.5861 8.00037 12.6427 8.2138C12.7008 8.43159 12.8395 8.61235 13.0347 8.72414C13.4754 8.9775 13.8042 9.40436 13.9356 9.89729C14.067 10.3895 13.9952 10.9238 13.7389 11.3644L13.2569 12.1673C12.7262 13.0791 11.5436 13.3949 10.6238 12.8635C10.5012 12.7931 10.3596 12.7546 10.2188 12.751H10.2144C10.0046 12.751 9.789 12.8403 9.63219 12.9964C9.47321 13.1554 9.38609 13.3673 9.38754 13.5924C9.38246 14.6588 8.51495 15.5213 7.4536 15.5213H6.54398C5.47756 15.5213 4.61004 14.6545 4.61004 13.588C4.60859 13.4566 4.57084 13.3202 4.50042 13.2018C4.38645 13.0029 4.20205 12.8606 3.98935 12.804C3.7781 12.7474 3.54652 12.7786 3.35632 12.8889C2.90042 13.143 2.36394 13.2047 1.87319 13.0668C1.38317 12.9281 0.959943 12.5913 0.711667 12.1448L0.257946 11.363C-0.272727 10.4425 0.0430634 9.2628 0.962121 8.7314C1.22274 8.58113 1.38463 8.30091 1.38463 8.00037C1.38463 7.69982 1.22274 7.41888 0.962121 7.26861C0.0423375 6.73431 -0.272727 5.55173 0.25722 4.63122L0.749417 3.82323C1.27283 2.91288 2.45613 2.59201 3.37882 3.12196C3.50441 3.19673 3.64089 3.23448 3.77955 3.23593C4.23182 3.23593 4.61004 2.86279 4.6173 2.40399C4.6144 1.898 4.81403 1.41234 5.17774 1.04573C5.54289 0.679849 6.02783 0.47876 6.54398 0.47876H7.4536ZM7.4536 1.56769H6.54398C6.31894 1.56769 6.10841 1.65553 5.94943 1.81379C5.79117 1.97277 5.70478 2.18403 5.70623 2.40907C5.69099 3.47042 4.82347 4.32486 3.77301 4.32486C3.43617 4.32123 3.11167 4.23049 2.83 4.06207C2.43436 3.83702 1.91748 3.97568 1.6859 4.37858L1.19443 5.18657C0.969381 5.57713 1.10731 6.09329 1.50804 6.32632C2.10259 6.67042 2.47356 7.31216 2.47356 8.00037C2.47356 8.68857 2.10259 9.32959 1.50659 9.67442C1.10804 9.90527 0.970107 10.4185 1.20096 10.8178L1.65904 11.6076C1.77229 11.8116 1.9574 11.959 2.17156 12.0192C2.38499 12.0788 2.6202 12.0534 2.81621 11.9445C3.10441 11.7753 3.4398 11.6875 3.77664 11.6875C3.94289 11.6875 4.10913 11.7085 4.27175 11.7521C4.76249 11.8842 5.18863 12.2124 5.44126 12.653C5.60532 12.9296 5.69607 13.2526 5.69897 13.5822C5.69897 14.0541 6.07792 14.4323 6.54398 14.4323H7.4536C7.91749 14.4323 8.29643 14.0563 8.29861 13.5924C8.29571 13.0799 8.49607 12.5928 8.86268 12.2261C9.2242 11.8646 9.72947 11.6476 10.2347 11.6621C10.5658 11.6701 10.8845 11.7594 11.1654 11.9191C11.5698 12.1506 12.0859 12.0127 12.3197 11.6134L12.8017 10.8098C12.9091 10.6247 12.9404 10.3924 12.883 10.1782C12.8264 9.96407 12.6841 9.77823 12.4924 9.66861C12.0438 9.41017 11.7237 8.99347 11.5908 8.49402C11.4594 8.004 11.5313 7.46897 11.7875 7.02832C11.9545 6.73794 12.1992 6.49329 12.4924 6.32487C12.8859 6.09474 13.0238 5.58004 12.7952 5.17931C12.7857 5.16334 12.777 5.14664 12.7698 5.12922L12.3444 4.39165C12.1128 3.98875 11.5973 3.85009 11.193 4.08022C10.756 4.33866 10.2362 4.4127 9.73673 4.28131C9.238 4.15209 8.81985 3.8363 8.55923 3.39056C8.39226 3.11179 8.30152 2.78729 8.29861 2.45698C8.30515 2.20871 8.21803 1.98584 8.05977 1.8225C7.90224 1.65989 7.68083 1.56769 7.4536 1.56769ZM7.00199 5.54164C8.35734 5.54164 9.46007 6.64509 9.46007 8.00044C9.46007 9.3558 8.35734 10.4578 7.00199 10.4578C5.64663 10.4578 4.54391 9.3558 4.54391 8.00044C4.54391 6.64509 5.64663 5.54164 7.00199 5.54164ZM7.00199 6.63057C6.24699 6.63057 5.63284 7.24545 5.63284 8.00044C5.63284 8.75543 6.24699 9.36887 7.00199 9.36887C7.75698 9.36887 8.37114 8.75543 8.37114 8.00044C8.37114 7.24545 7.75698 6.63057 7.00199 6.63057Z" fill="#464F54"/>
</svg>
