<svg width="375" height="375" viewBox="0 0 375 375" fill="none" xmlns="http://www.w3.org/2000/svg">
<path d="M291.667 312.5H166.667V229.167H145.833V312.5H83.3333V229.167H62.5V312.5C62.5 318.025 64.6949 323.324 68.6019 327.231C72.5089 331.138 77.808 333.333 83.3333 333.333H291.667C297.192 333.333 302.491 331.138 306.398 327.231C310.305 323.324 312.5 318.025 312.5 312.5V229.167H291.667V312.5Z" fill="white"/>
<path d="M351.98 138.229L309.48 53.229C307.755 49.758 305.096 46.837 301.802 44.7944C298.509 42.7518 294.71 41.6686 290.834 41.6665H84.1675C80.2916 41.6686 76.4932 42.7518 73.1992 44.7944C69.9053 46.837 67.2464 49.758 65.5217 53.229L23.0216 138.229C21.5706 141.14 20.8214 144.351 20.8341 147.604V179.687C20.8246 184.555 22.52 189.273 25.6258 193.021C30.216 198.283 35.8852 202.494 42.248 205.37C48.6109 208.246 55.5183 209.719 62.5008 209.687C73.8943 209.705 84.9402 205.765 93.7508 198.542C102.561 205.769 113.605 209.72 125.001 209.72C136.397 209.72 147.44 205.769 156.251 198.542C165.061 205.769 176.105 209.72 187.501 209.72C198.897 209.72 209.94 205.769 218.751 198.542C227.561 205.769 238.605 209.72 250.001 209.72C261.397 209.72 272.44 205.769 281.251 198.542C291.086 206.617 303.669 210.564 316.354 209.554C329.039 208.544 340.839 202.655 349.272 193.125C352.415 189.391 354.148 184.672 354.168 179.792V147.604C354.18 144.351 353.431 141.14 351.98 138.229ZM156.251 150V165.833L147.709 177.083C145.087 180.657 141.66 183.563 137.706 185.567C133.752 187.57 129.381 188.614 124.949 188.614C120.516 188.614 116.146 187.57 112.192 185.567C108.237 183.563 104.81 180.657 102.188 177.083L93.7508 165.417V150L120.73 62.4998H166.668L156.251 150ZM281.251 165.417L272.813 177.083C270.191 180.657 266.764 183.563 262.81 185.567C258.856 187.57 254.486 188.614 250.053 188.614C245.62 188.614 241.25 187.57 237.296 185.567C233.342 183.563 229.915 180.657 227.293 177.083L218.751 165.417V150L208.334 62.4998H254.688L281.251 150V165.417Z" fill="white"/>
</svg>
