<svg width="12" height="20" viewBox="0 0 12 20" fill="none" xmlns="http://www.w3.org/2000/svg">
<path d="M8.82501 10.653C8.94301 10.395 9.27001 10.156 9.55201 10.124C9.83401 10.092 10.091 9.83399 10.123 9.55199C10.157 9.27199 10.395 8.94399 10.652 8.82499C10.7815 8.7591 10.8868 8.65403 10.9531 8.52475C11.0194 8.39546 11.0431 8.24857 11.021 8.10499C10.963 7.82699 11.089 7.44199 11.297 7.25099C11.4002 7.14806 11.468 7.01508 11.4908 6.87116C11.5137 6.72723 11.4903 6.57978 11.424 6.44999C11.3554 6.31043 11.3198 6.15699 11.3198 6.00149C11.3198 5.84599 11.3554 5.69256 11.424 5.55299C11.4904 5.42324 11.5139 5.27575 11.4911 5.13179C11.4683 4.98783 11.4003 4.85484 11.297 4.75199C11.089 4.55899 10.964 4.17499 11.021 3.89799C11.0434 3.75411 11.0198 3.60684 10.9535 3.47718C10.8873 3.34752 10.7817 3.24211 10.652 3.17599C10.5146 3.10269 10.3956 2.99918 10.304 2.87326C10.2124 2.74734 10.1505 2.60228 10.123 2.44899C10.1002 2.30566 10.0327 2.17319 9.93019 2.07047C9.82765 1.96776 9.6953 1.90004 9.55201 1.87699C9.39866 1.85004 9.25348 1.78848 9.1275 1.69699C9.00153 1.60549 8.89807 1.48648 8.82501 1.34899C8.75903 1.2193 8.65353 1.11394 8.52374 1.04815C8.39396 0.982358 8.24661 0.959539 8.10301 0.982991C7.94889 1.00459 7.79188 0.990782 7.6439 0.942611C7.49593 0.89444 7.36087 0.813175 7.24901 0.704991C7.05601 0.494991 6.69601 0.438991 6.44901 0.577991C6.20201 0.716991 5.79701 0.716991 5.55101 0.577991C5.42161 0.510708 5.27409 0.486547 5.12999 0.509035C4.98589 0.531523 4.85275 0.599481 4.75001 0.702991C4.63823 0.8113 4.50318 0.892647 4.35518 0.940826C4.20718 0.989005 4.05013 1.00274 3.89601 0.980991C3.75259 0.957916 3.60554 0.981034 3.47612 1.047C3.3467 1.11297 3.2416 1.21838 3.17601 1.34799C3.05701 1.60399 2.73001 1.84299 2.44801 1.87499C2.30445 1.89805 2.17185 1.96588 2.06913 2.06878C1.96641 2.17168 1.89882 2.3044 1.87601 2.44799C1.84888 2.60128 1.78713 2.74635 1.69546 2.87216C1.60378 2.99797 1.48461 3.1012 1.34701 3.17399C1.21773 3.24044 1.11273 3.34603 1.04701 3.47568C0.981286 3.60534 0.958186 3.75243 0.981007 3.89599C1.03601 4.17299 0.911007 4.55799 0.703007 4.74999C0.495007 4.94199 0.437007 5.30199 0.576007 5.55099C0.715007 5.79699 0.715007 6.20199 0.576007 6.44799C0.509671 6.57793 0.486227 6.72555 0.509046 6.86965C0.531864 7.01375 0.59977 7.1469 0.703007 7.24999C0.912007 7.43999 1.03601 7.82499 0.981007 8.10399C0.958165 8.24728 0.981275 8.39411 1.04702 8.52346C1.11277 8.6528 1.21779 8.758 1.34701 8.82399C1.60501 8.94299 1.84201 9.27099 1.87501 9.55099C1.90901 9.83299 2.16501 10.091 2.44701 10.123C2.72901 10.155 3.05601 10.395 3.17501 10.652C3.24111 10.7811 3.34634 10.886 3.47565 10.9518C3.60496 11.0175 3.75173 11.0407 3.89501 11.018C4.17301 10.963 4.55801 11.087 4.74901 11.296C4.85202 11.399 4.98499 11.4668 5.12888 11.4896C5.27277 11.5124 5.42018 11.4891 5.55001 11.423C5.79601 11.284 6.20101 11.284 6.44801 11.423C6.69501 11.562 7.05501 11.504 7.24801 11.296C7.44101 11.086 7.82401 10.963 8.10201 11.018C8.24561 11.0411 8.39285 11.0183 8.52269 10.9527C8.65254 10.8872 8.75835 10.7823 8.82501 10.653V10.653ZM6.00001 9.39899C5.09827 9.39899 4.23347 9.04078 3.59584 8.40315C2.95822 7.76553 2.60001 6.90073 2.60001 5.99899C2.60001 5.09725 2.95822 4.23245 3.59584 3.59483C4.23347 2.9572 5.09827 2.59899 6.00001 2.59899C6.90174 2.59899 7.76655 2.9572 8.40417 3.59483C9.04179 4.23245 9.40001 5.09725 9.40001 5.99899C9.40001 6.90073 9.04179 7.76553 8.40417 8.40315C7.76655 9.04078 6.90174 9.39899 6.00001 9.39899ZM1.97501 11.409L0.732007 18.458L3.86001 17.994L6.64101 19.5L7.87901 12.479C6.8794 12.7713 5.82545 12.8267 4.80068 12.641C3.77591 12.4553 2.80847 12.0335 1.97501 11.409V11.409ZM9.96101 11.457C9.64871 11.684 9.31749 11.8837 8.97101 12.054L8.22301 16.29L11.592 14.462L9.96101 11.457V11.457Z" fill="white"/>
</svg>
