<svg width="20" height="20" viewBox="0 0 20 20" fill="none" xmlns="http://www.w3.org/2000/svg">
<path d="M19.398 7.41498L11.954 5.41898L10.651 0.557984C10.542 0.151984 10.106 -0.0840159 9.67803 0.0289841L0.602028 2.46098C0.174028 2.57498 -0.0839719 2.99898 0.0250281 3.40498L3.25503 15.456C3.36403 15.862 3.79903 16.099 4.22603 15.983L7.83903 15.016L7.34703 16.854C7.23803 17.26 7.49603 17.684 7.92403 17.797L16.034 19.971C16.462 20.086 16.896 19.85 17.006 19.442L19.976 8.35798C20.084 7.95198 19.826 7.52798 19.398 7.41498ZM1.63303 3.63098L9.46303 1.53498L12.361 12.353L4.53103 14.449L1.63303 3.63098ZM15.678 18.463L8.86403 16.6L9.40003 14.598L13.301 13.551C13.729 13.438 13.989 13.014 13.879 12.608L12.371 6.98098L18.318 8.61198L15.678 18.463Z" fill="#464F54"/>
</svg>
