<svg width="18" height="18" viewBox="0 0 18 18" fill="none" xmlns="http://www.w3.org/2000/svg">
<path d="M17.121 2.271C16.826 2.015 15.215 0.54 14.914 0.28C14.615 0.021 14.158 0 13.812 0H4.18799C3.84299 0 3.38599 0.021 3.08599 0.28C2.78499 0.54 1.17399 2.016 0.878991 2.271C0.581991 2.527 0.335991 2.914 0.414991 3.463C0.493991 4.014 2.30499 17.124 2.35199 17.436C2.3768 17.591 2.45527 17.7324 2.5737 17.8355C2.69214 17.9386 2.84301 17.9968 2.99999 18H15C15.1571 17.9968 15.3081 17.9384 15.4266 17.8351C15.545 17.7319 15.6234 17.5902 15.648 17.435C15.695 17.124 17.506 4.013 17.586 3.462C17.664 2.914 17.418 2.527 17.121 2.271ZM8.99999 10.973C5.75199 10.973 5.05699 6.377 4.91299 5.43H6.74999C7.02599 6.811 7.65399 9.174 8.99999 9.174C10.346 9.174 10.975 6.811 11.25 5.43H13.088C12.943 6.377 12.248 10.973 8.99999 10.973ZM2.16999 3.006L3.99999 1H14L15.83 3.006H2.16999Z" fill="#F79F13"/>
</svg>
