<svg width="18" height="16" viewBox="0 0 18 16" fill="none" xmlns="http://www.w3.org/2000/svg">
<path d="M5.123 5.25L5.914 0H1.8L0.081 4.5C0.028 4.66 0 4.826 0 5C0 6.104 1.15 7 2.571 7C3.881 7 4.964 6.236 5.123 5.25ZM9 7C10.42 7 11.571 6.104 11.571 5C11.571 4.959 11.568 4.918 11.566 4.879L11.057 0H6.943L6.433 4.875C6.431 4.916 6.429 4.957 6.429 5C6.429 6.104 7.58 7 9 7ZM14 8.046V12H4V8.052C3.562 8.21 3.08 8.3 2.571 8.3C2.376 8.3 2.187 8.277 2 8.251V14.6C2 15.37 2.629 16 3.398 16H14.6C15.37 16 16 15.369 16 14.6V8.252C15.811 8.28102 15.6202 8.29739 15.429 8.301C14.9414 8.30051 14.4577 8.21419 14 8.046V8.046ZM17.92 4.5L16.199 0H12.086L12.876 5.242C13.03 6.232 14.113 7 15.429 7C16.849 7 18 6.104 18 5C18 4.826 17.972 4.66 17.92 4.5Z" fill="#C4C4C4"/>
</svg>
