<svg width="20" height="20" viewBox="0 0 20 20" fill="none" xmlns="http://www.w3.org/2000/svg">
<path d="M11 0.958008V9.99701C11 10.551 10.551 11 9.99701 11H0.958008C1.14584 12.7045 1.81147 14.3213 2.87819 15.6639C3.94491 17.0066 5.3693 18.0206 6.98721 18.5889C8.60512 19.1573 10.3507 19.2569 12.0228 18.8763C13.6948 18.4958 15.2254 17.6505 16.4379 16.4379C17.6505 15.2254 18.4958 13.6948 18.8763 12.0228C19.2569 10.3507 19.1573 8.60512 18.5889 6.98721C18.0206 5.3693 17.0066 3.94491 15.6639 2.87819C14.3213 1.81147 12.7045 1.14584 11 0.958008V0.958008ZM9.00001 0.958008C6.9453 1.18541 5.0293 2.10577 3.56754 3.56754C2.10577 5.0293 1.18541 6.9453 0.958008 9.00001H9.00001V0.958008Z" fill="white"/>
</svg>
