<svg width="18" height="18" viewBox="0 0 18 18" fill="none" xmlns="http://www.w3.org/2000/svg">
<path fill-rule="evenodd" clip-rule="evenodd" d="M7.2 16.2C7.2 17.1941 8.00589 18 9 18C9.99411 18 10.8 17.1941 10.8 16.2V15.0391C11.219 14.9144 11.6197 14.7473 11.9972 14.5428L12.8184 15.364C13.5213 16.0669 14.661 16.0669 15.364 15.364C16.0669 14.661 16.0669 13.5213 15.364 12.8184L14.5428 11.9972C14.7473 11.6197 14.9144 11.219 15.0391 10.8H16.2C17.1941 10.8 18 9.99411 18 9C18 8.00589 17.1941 7.2 16.2 7.2H15.0391C14.9144 6.78102 14.7473 6.3803 14.5428 6.00282L15.364 5.18163C16.0669 4.47869 16.0669 3.33899 15.364 2.63604C14.661 1.9331 13.5213 1.9331 12.8184 2.63604L11.9972 3.45724C11.6197 3.2527 11.219 3.08559 10.8 2.96089V1.8C10.8 0.805887 9.99411 0 9 0C8.00589 0 7.2 0.805888 7.2 1.8V2.96089C6.78101 3.08559 6.3803 3.2527 6.00282 3.45724L5.18163 2.63605C4.47869 1.9331 3.33899 1.9331 2.63604 2.63605C1.9331 3.33899 1.9331 4.47869 2.63604 5.18163L3.45724 6.00283C3.2527 6.3803 3.08559 6.78102 2.96089 7.2H1.8C0.805887 7.2 0 8.00589 0 9C0 9.99411 0.805888 10.8 1.8 10.8H2.96089C3.08559 11.219 3.2527 11.6197 3.45724 11.9972L2.63603 12.8184C1.93309 13.5213 1.93309 14.661 2.63603 15.364C3.33897 16.0669 4.47867 16.0669 5.18161 15.364L6.00282 14.5428C6.38029 14.7473 6.78101 14.9144 7.2 15.0391V16.2ZM8.99999 11.7C10.4912 11.7 11.7 10.4912 11.7 8.99999C11.7 7.50882 10.4912 6.29999 8.99999 6.29999C7.50882 6.29999 6.29999 7.50882 6.29999 8.99999C6.29999 10.4912 7.50882 11.7 8.99999 11.7Z" fill="#F79F13"/>
</svg>
