<svg width="18" height="18" viewBox="0 0 18 18" fill="none" xmlns="http://www.w3.org/2000/svg">
<path d="M17.121 2.271C16.826 2.015 15.215 0.54 14.914 0.28C14.615 0.021 14.158 0 13.812 0H4.18802C3.84302 0 3.38602 0.021 3.08602 0.28C2.78502 0.54 1.17402 2.016 0.879022 2.271C0.582022 2.527 0.336022 2.914 0.415022 3.463C0.494022 4.014 2.30502 17.124 2.35202 17.436C2.37683 17.591 2.4553 17.7324 2.57373 17.8355C2.69217 17.9386 2.84304 17.9968 3.00002 18H15C15.1571 17.9968 15.3081 17.9384 15.4266 17.8351C15.545 17.7319 15.6234 17.5902 15.648 17.435C15.695 17.124 17.506 4.013 17.586 3.462C17.664 2.914 17.418 2.527 17.121 2.271V2.271ZM9.00002 10.973C5.75202 10.973 5.05702 6.377 4.91302 5.43H6.75002C7.02602 6.811 7.65402 9.174 9.00002 9.174C10.346 9.174 10.975 6.811 11.25 5.43H13.088C12.943 6.377 12.248 10.973 9.00002 10.973V10.973ZM2.17002 3.006L4.00002 1H14L15.83 3.006H2.17002Z" fill="#FAFAFA"/>
</svg>
