<svg width="11" height="13" viewBox="0 0 11 13" fill="none" xmlns="http://www.w3.org/2000/svg">
<path d="M1.07861 10.7677C1.07861 9.28182 2.12373 8.01621 3.54406 7.78204L3.672 7.76095C4.80934 7.57344 5.96826 7.57344 7.10559 7.76095L7.23353 7.78204C8.65387 8.01621 9.69898 9.28182 9.69898 10.7677C9.69898 11.4099 9.19501 11.9305 8.57333 11.9305H2.20427C1.58259 11.9305 1.07861 11.4099 1.07861 10.7677Z" stroke="#464F54" stroke-width="0.923611"/>
<path d="M7.90309 3.27165C7.90309 4.61065 6.77741 5.69613 5.38881 5.69613C4.00022 5.69613 2.87454 4.61065 2.87454 3.27165C2.87454 1.93264 4.00022 0.847168 5.38881 0.847168C6.77741 0.847168 7.90309 1.93264 7.90309 3.27165Z" stroke="#464F54" stroke-width="0.923611"/>
</svg>
