<svg width="18" height="18" viewBox="0 0 18 18" fill="none" xmlns="http://www.w3.org/2000/svg">
<path d="M15.783 8.99998C15.783 7.95098 16.429 7.12498 17.4 6.55698C17.2265 5.97765 16.9946 5.41745 16.708 4.88498C15.619 5.16998 14.738 4.74398 13.997 4.00198C13.256 3.26198 13.029 2.38098 13.314 1.29098C12.7821 1.00337 12.2217 0.771796 11.642 0.599976C11.074 1.56998 10.047 2.21498 8.99998 2.21498C7.95198 2.21498 6.92598 1.56998 6.35698 0.599976C5.77748 0.771622 5.21745 1.00321 4.68598 1.29098C4.97098 2.38098 4.74498 3.26198 4.00198 4.00198C3.26198 4.74398 2.38098 5.16998 1.29098 4.88498C1.00379 5.41708 0.772235 5.97738 0.599976 6.55698C1.56998 7.12498 2.21498 7.95098 2.21498 8.99998C2.21498 10.047 1.56998 11.074 0.599976 11.643C0.772852 12.2224 1.00438 12.7826 1.29098 13.315C2.38098 13.03 3.26198 13.256 4.00198 13.997C4.74298 14.739 4.97098 15.62 4.68598 16.708C5.21813 16.9956 5.7784 17.2278 6.35798 17.401C6.92598 16.428 7.95298 15.784 9.00098 15.784C10.048 15.784 11.075 16.429 11.644 17.401C12.2233 17.227 12.7835 16.9948 13.316 16.708C13.031 15.62 13.257 14.739 13.999 13.997C14.74 13.257 15.621 12.831 16.71 13.114C16.9974 12.5819 17.2293 12.0216 17.402 11.442C16.429 10.873 15.783 10.047 15.783 8.99998ZM8.99998 12.652C8.03114 12.652 7.10198 12.2671 6.41691 11.582C5.73184 10.897 5.34698 9.96781 5.34698 8.99897C5.34698 8.03014 5.73184 7.10099 6.41691 6.41591C7.10198 5.73084 8.03114 5.34598 8.99998 5.34598C9.96881 5.34598 10.898 5.73084 11.583 6.41591C12.2681 7.10099 12.653 8.03014 12.653 8.99897C12.653 9.96781 12.2681 10.897 11.583 11.582C10.898 12.2671 9.96881 12.652 8.99998 12.652Z" fill="#464F54"/>
</svg>
