<svg width="20" height="20" viewBox="0 0 20 20" fill="none" xmlns="http://www.w3.org/2000/svg">
<path d="M15.989 19.1291C15.989 16.8831 13.802 15.7401 11.672 14.8221C9.549 13.9081 8.871 13.1381 8.871 11.4881C8.871 10.4991 9.519 10.8211 9.803 9.00706C9.923 8.25506 10.495 8.99506 10.605 7.27806C10.605 6.59406 10.292 6.42406 10.292 6.42406C10.292 6.42406 10.451 5.41106 10.513 4.63106C10.577 3.81406 10.115 2.07106 8.212 1.53606C7.88 1.19506 7.655 0.65406 8.679 0.11206C6.439 0.00805982 5.918 1.18006 4.725 2.04206C3.71 2.79806 3.436 3.99506 3.485 4.63206C3.55 5.41206 3.708 6.42506 3.708 6.42506C3.708 6.42506 3.394 6.59506 3.394 7.27906C3.504 8.99706 4.078 8.25606 4.197 9.00806C4.481 10.8221 5.13 10.5001 5.13 11.4891C5.13 13.1391 4.918 13.6991 2.794 14.6131C0.663 15.5301 0 17.0001 0.011 19.1291C0.014 19.7661 0 20.0001 0 20.0001H16C16 20.0001 15.989 19.7661 15.989 19.1291ZM18.528 13.3651C17.393 12.9081 16.923 12.3631 16.923 11.2991C16.923 10.6581 17.341 10.8671 17.525 9.69606C17.602 9.21206 17.972 9.68806 18.043 8.58106C18.043 8.14006 17.841 8.03006 17.841 8.03006C17.841 8.03006 17.944 7.37406 17.984 6.87106C18.034 6.24406 17.62 4.62406 15.716 4.62406C13.813 4.62406 13.398 6.24406 13.447 6.87106C13.489 7.37306 13.591 8.03006 13.591 8.03006C13.591 8.03006 13.389 8.13906 13.389 8.58106C13.46 9.68806 13.83 9.21206 13.907 9.69606C14.091 10.8681 14.509 10.6591 14.509 11.2991C14.509 12.3631 14.071 12.8611 12.7 13.4511C12.631 13.4801 12.58 13.5191 12.517 13.5531C14.157 14.2651 16.743 15.4941 17.355 18.0001H20V15.6821C20 14.6821 19.727 13.8481 18.528 13.3651V13.3651Z" fill="white"/>
</svg>
