<svg width="18" height="18" viewBox="0 0 18 18" fill="none" xmlns="http://www.w3.org/2000/svg">
<path fill-rule="evenodd" clip-rule="evenodd" d="M12.3791 17.6067C15.0164 16.9827 17.0731 14.9499 17.6747 12.3627C18.2123 10.051 18.0816 7.63867 17.2972 5.39551L17.1806 5.06226C16.3175 2.59406 14.1613 0.772092 11.5387 0.294893L10.8206 0.164221C9.6172 -0.0547404 8.38284 -0.0547405 7.17947 0.164221L6.46129 0.294898C3.83871 0.772095 1.68252 2.59405 0.819399 5.06224L0.70286 5.3955C-0.0815685 7.63866 -0.212308 10.051 0.325265 12.3627C0.926925 14.9499 2.98356 16.9827 5.62087 17.6067C7.8373 18.1311 10.1627 18.1311 12.3791 17.6067ZM6.62913 4.20008C6.76453 3.88483 6.61295 3.52193 6.29056 3.38953C5.96817 3.25713 5.59705 3.40535 5.46165 3.7206L5.24934 4.2149C4.85679 5.12883 4.75812 6.13798 4.96646 7.10809C5.29708 8.64761 6.55047 9.83667 8.13417 10.1132L8.25124 10.1336C8.7465 10.2201 9.25352 10.2201 9.74879 10.1336L9.86586 10.1132C11.4495 9.83667 12.7029 8.64761 13.0336 7.10809C13.2419 6.13798 13.1432 5.12884 12.7507 4.21491L12.5384 3.7206C12.403 3.40535 12.0319 3.25713 11.7095 3.38953C11.3871 3.52193 11.2355 3.88483 11.3709 4.20007L11.5832 4.69438C11.8762 5.37646 11.9498 6.1296 11.7943 6.85361C11.5698 7.89904 10.7187 8.70649 9.64326 8.89427L9.52619 8.91471C9.17816 8.97549 8.82187 8.97549 8.47383 8.91471L8.35676 8.89427C7.28134 8.70649 6.43021 7.89904 6.2057 6.85361C6.05021 6.1296 6.12385 5.37646 6.41681 4.69438L6.62913 4.20008Z" fill="#9E09E4"/>
</svg>
