<svg width="18" height="18" viewBox="0 0 18 18" fill="none" xmlns="http://www.w3.org/2000/svg">
<path d="M16.9214 2.271C16.6264 2.015 15.0154 0.54 14.7144 0.28C14.4154 0.021 13.9584 0 13.6124 0H3.98838C3.64338 0 3.18638 0.021 2.88638 0.28C2.58538 0.54 0.974376 2.016 0.679376 2.271C0.382376 2.527 0.136376 2.914 0.215376 3.463C0.294376 4.014 2.10538 17.124 2.15238 17.436C2.17718 17.591 2.25565 17.7324 2.37409 17.8355C2.49252 17.9386 2.6434 17.9968 2.80038 18H14.8004C14.9575 17.9968 15.1085 17.9384 15.2269 17.8351C15.3454 17.7319 15.4238 17.5902 15.4484 17.435C15.4954 17.124 17.3064 4.013 17.3864 3.462C17.4644 2.914 17.2184 2.527 16.9214 2.271ZM8.80038 10.973C5.55238 10.973 4.85738 6.377 4.71338 5.43H6.55038C6.82638 6.811 7.45438 9.174 8.80038 9.174C10.1464 9.174 10.7754 6.811 11.0504 5.43H12.8884C12.7434 6.377 12.0484 10.973 8.80038 10.973ZM1.97038 3.006L3.80038 1H13.8004L15.6304 3.006H1.97038Z" fill="#C2C2C2"/>
</svg>
