<svg width="13" height="16" viewBox="0 0 13 16" fill="none" xmlns="http://www.w3.org/2000/svg">
<path d="M7.6717 8.98192L8.23334 8.42273H7.44079H1.74829C1.63618 8.42273 1.52865 8.37819 1.44938 8.29891L1.21796 8.53033L1.44938 8.29891C1.3701 8.21964 1.32556 8.11211 1.32556 8C1.32556 7.88789 1.3701 7.78036 1.44938 7.70109L1.21904 7.47075L1.44938 7.70109C1.52865 7.62181 1.63618 7.57727 1.74829 7.57727H7.44079H8.23334L7.6717 7.01808L5.94721 5.30108C5.94713 5.301 5.94705 5.30092 5.94697 5.30084C5.90754 5.26135 5.87626 5.2145 5.85491 5.16295C5.83351 5.11129 5.82249 5.05592 5.82249 5C5.82249 4.94408 5.83351 4.88871 5.85491 4.83706C5.8763 4.7854 5.90767 4.73846 5.94721 4.69892C5.98675 4.65938 6.03368 4.62801 6.08534 4.60662L5.96525 4.31669L6.08535 4.60662C6.13701 4.58522 6.19237 4.5742 6.24829 4.5742C6.30421 4.5742 6.35958 4.58522 6.41124 4.60662C6.4629 4.62801 6.50983 4.65938 6.54937 4.69892L9.54649 7.69603C9.58397 7.73575 9.6134 7.78237 9.63315 7.83331L9.63309 7.83334L9.63557 7.83936C9.67785 7.94228 9.67785 8.05772 9.63557 8.16064L9.63551 8.16061L9.63315 8.16669C9.6134 8.21763 9.58397 8.26425 9.54649 8.30397L6.54937 11.3011L6.54843 11.302C6.50913 11.3417 6.46237 11.3731 6.41086 11.3946C6.35935 11.416 6.3041 11.4271 6.24829 11.4271C6.19248 11.4271 6.13723 11.416 6.08572 11.3946C6.03421 11.3731 5.98745 11.3417 5.94815 11.302L5.94626 11.3001C5.90663 11.2608 5.87519 11.2141 5.85373 11.1626C5.83226 11.1111 5.82121 11.0558 5.82121 11C5.82121 10.9442 5.83226 10.8889 5.85373 10.8374C5.87519 10.7859 5.90663 10.7392 5.94626 10.6999L5.9467 10.6994L7.6717 8.98192ZM1.44938 5.29891L1.21796 5.53033L1.44938 5.29891C1.3701 5.21964 1.32556 5.11211 1.32556 5V2.75C1.32556 2.24006 1.52814 1.75101 1.88872 1.39043C2.2493 1.02985 2.73835 0.827273 3.24829 0.827273H10.7483C11.2582 0.827273 11.7473 1.02985 12.1079 1.39043C12.4684 1.75101 12.671 2.24006 12.671 2.75V13.25C12.671 13.7599 12.4684 14.249 12.1079 14.6096C11.7473 14.9702 11.2582 15.1727 10.7483 15.1727H3.24829C2.73835 15.1727 2.2493 14.9702 1.88872 14.6096C1.52814 14.249 1.32556 13.7599 1.32556 13.25V11C1.32556 10.8879 1.3701 10.7804 1.44938 10.7011L1.21851 10.4702L1.44938 10.7011C1.52865 10.6218 1.63618 10.5773 1.74829 10.5773C1.86041 10.5773 1.96793 10.6218 2.0472 10.7011C2.12648 10.7804 2.17102 10.8879 2.17102 11V13.25C2.17102 13.5357 2.28452 13.8097 2.48654 14.0117C2.68857 14.2138 2.96258 14.3273 3.24829 14.3273H10.7483C11.034 14.3273 11.308 14.2138 11.51 14.0117C11.7121 13.8097 11.8256 13.5357 11.8256 13.25V2.75C11.8256 2.46429 11.7121 2.19028 11.51 1.98825C11.308 1.78623 11.034 1.67273 10.7483 1.67273H3.24829C2.96258 1.67273 2.68857 1.78623 2.48654 1.98825C2.28452 2.19028 2.17102 2.46429 2.17102 2.75V5C2.17102 5.11211 2.12648 5.21964 2.0472 5.29891C1.96793 5.37819 1.86041 5.42273 1.74829 5.42273C1.63618 5.42273 1.52865 5.37819 1.44938 5.29891Z" stroke="#464F54" stroke-width="0.654545"/>
</svg>
