<svg width="18" height="18" viewBox="0 0 18 18" fill="none" xmlns="http://www.w3.org/2000/svg">
<path d="M16.7209 2.271C16.4259 2.015 14.8149 0.54 14.5139 0.28C14.2149 0.021 13.7579 0 13.4119 0H3.78794C3.44294 0 2.98594 0.021 2.68594 0.28C2.38494 0.54 0.773936 2.016 0.478936 2.271C0.181936 2.527 -0.0640636 2.914 0.0149364 3.463C0.0939364 4.014 1.90494 17.124 1.95194 17.436C1.97674 17.591 2.05521 17.7324 2.17365 17.8355C2.29208 17.9386 2.44296 17.9968 2.59994 18H14.5999C14.7571 17.9968 14.9081 17.9384 15.0265 17.8351C15.145 17.7319 15.2233 17.5902 15.2479 17.435C15.2949 17.124 17.1059 4.013 17.1859 3.462C17.2639 2.914 17.0179 2.527 16.7209 2.271ZM8.59994 10.973C5.35194 10.973 4.65694 6.377 4.51294 5.43H6.34994C6.62594 6.811 7.25394 9.174 8.59994 9.174C9.94594 9.174 10.5749 6.811 10.8499 5.43H12.6879C12.5429 6.377 11.8479 10.973 8.59994 10.973ZM1.76994 3.006L3.59994 1H13.5999L15.4299 3.006H1.76994Z" fill="#F79F13"/>
</svg>
