<svg width="18" height="19" viewBox="0 0 18 19" fill="none" xmlns="http://www.w3.org/2000/svg">
<path d="M10.933 12.069C10.933 12.069 17.992 6.97497 17.209 1.14497C17.2013 1.04597 17.162 0.952049 17.097 0.876967C17.0249 0.810047 16.9322 0.769516 16.834 0.761967C11.137 -0.0390335 6.16003 7.18397 6.16003 7.18397C1.84203 6.66697 2.15603 7.52797 0.186027 12.26C-0.190973 13.162 0.420027 13.473 1.09003 13.219L3.23803 12.408L5.82803 15.056L5.03503 17.255C4.78703 17.941 5.09003 18.566 5.97303 18.181C10.597 16.165 11.439 16.487 10.933 12.069ZM11.942 6.15297C11.6543 5.85568 11.4935 5.45817 11.4935 5.04447C11.4935 4.63076 11.6543 4.23326 11.942 3.93597C12.0827 3.79099 12.251 3.67574 12.4371 3.59703C12.6231 3.51833 12.823 3.47777 13.025 3.47777C13.227 3.47777 13.427 3.51833 13.613 3.59703C13.799 3.67574 13.9674 3.79099 14.108 3.93597C14.3957 4.23326 14.5566 4.63076 14.5566 5.04447C14.5566 5.45817 14.3957 5.85568 14.108 6.15297C13.9674 6.29794 13.799 6.41319 13.613 6.4919C13.427 6.57061 13.227 6.61116 13.025 6.61116C12.823 6.61116 12.6231 6.57061 12.4371 6.4919C12.251 6.41319 12.0827 6.29794 11.942 6.15297Z" fill="#464F54"/>
</svg>
